<svg width="96" height="96" viewBox="0 0 96 96" fill="none" xmlns="http://www.w3.org/2000/svg">
<g id="check-circle-1fb-line" clip-path="url(#clip0_1039_2829)">
<g id="b">
<g id="c">
<path id="Vector" d="M94.5329 46.5573C93.7504 46.5573 93.0657 47.1931 93.0657 48.0245C93.0657 72.8681 72.8192 93.1146 47.9756 93.1146C23.1319 93.1146 2.88538 72.8681 2.88538 48.0245C2.88538 23.1808 23.1319 2.88538 48.0245 2.88538C61.3265 2.88538 73.7483 8.70504 82.3556 18.7794L39.3683 61.8156L26.0173 48.4646C25.4305 47.8777 24.5502 47.8777 23.9633 48.4646C23.3765 49.0515 23.3765 49.9317 23.9633 50.5186L38.3902 64.9455C38.6836 65.2389 39.026 65.3856 39.4172 65.3856C39.8085 65.3856 40.1508 65.2389 40.4442 64.9455L85.3388 19.9042C85.9256 19.3174 85.9256 18.4371 85.3388 17.8502C85.2899 17.8013 85.1921 17.8502 85.1432 17.7524C85.1432 17.6546 85.1432 17.5568 85.0453 17.459C75.9002 6.35762 62.4024 0 48.0245 0C21.5181 0 0 21.5181 0 48.0245C0 74.5308 21.5181 96.0489 48.0245 96.0489C74.5308 96.0489 96.0489 74.5308 96.0489 48.0245C96.0489 47.242 95.4131 46.5573 94.5818 46.5573H94.5329Z" fill="#1AC057"/>
</g>
</g>
</g>
<defs>
<clipPath id="clip0_1039_2829">
<rect width="96" height="96" fill="white"/>
</clipPath>
</defs>
</svg>
